<svg width="30" height="32" viewBox="0 0 30 32" fill="none" xmlns="http://www.w3.org/2000/svg">
<path d="M6.67178 13.4411L0.0749989 23.184C-0.117498 23.4965 0.0812488 23.9028 0.445619 23.9428L13.4617 25.3221L6.67178 13.4411ZM0.463118 19.7141L5.16867 12.0673L0.378744 9.19362C0.211872 9.09362 0 9.21362 0 9.40799V19.5835C0 19.8353 0.33062 19.9291 0.463118 19.7141ZM1.14061 26.4746L13.2904 31.9533C13.6217 32.1064 13.9998 31.8639 13.9998 31.4995V27.3952L1.27811 26.0015C0.999986 25.9702 0.888737 26.3509 1.14061 26.4746ZM6.21678 10.3636L11.2123 1.42998C11.4836 0.988736 10.988 0.476868 10.5386 0.733739L1.11311 6.89678C0.958736 6.99802 0.963736 7.22552 1.12123 7.32052L6.21678 10.3636ZM14.9998 10.9998H21.8253L15.8516 0.476243C15.656 0.158748 15.3279 0 14.9998 0C14.6717 0 14.3435 0.158748 14.1479 0.476243L8.17426 10.9998H14.9998ZM29.6208 9.19362L24.8309 12.068L29.5364 19.7147C29.6683 19.9297 29.9996 19.836 29.9996 19.5835V9.40799C29.9996 9.21362 29.7877 9.09362 29.6208 9.19362ZM23.7828 10.3636L28.8783 7.31989C29.0365 7.2249 29.0408 6.9974 28.8865 6.89615L19.461 0.733739C19.0116 0.476868 18.516 0.988736 18.7872 1.42998L23.7828 10.3636ZM28.7215 26.0015L15.9998 27.3946V31.4989C15.9998 31.8639 16.3779 32.1058 16.7091 31.9527L28.859 26.474C29.1108 26.3509 28.9996 25.9702 28.7215 26.0015ZM23.3278 13.4411L16.5385 25.3221L29.5546 23.9428C29.9189 23.9022 30.1177 23.4965 29.9252 23.184L23.3278 13.4411ZM14.9998 12.9998H8.723L14.9998 23.984L21.2766 12.9998H14.9998Z" fill="#679786"/>
</svg>
