<svg width="361" height="196" viewBox="0 0 361 196" fill="none" xmlns="http://www.w3.org/2000/svg">
<g filter="url(#filter0_d_3_3)">
<path d="M154.239 48.8035L132.25 81.2801C131.608 82.3218 132.271 83.6759 133.485 83.8093L176.872 88.4071L154.239 48.8035ZM133.544 69.7136L149.229 44.2244L133.262 34.6454C132.706 34.3121 132 34.7121 132 35.36V69.2782C132 70.1178 133.102 70.4303 133.544 69.7136ZM135.802 92.2487L176.301 110.511C177.406 111.021 178.666 110.213 178.666 108.998V95.3174L136.26 90.6717C135.333 90.5675 134.962 91.8362 135.802 92.2487ZM152.723 38.5453L169.374 8.7666C170.279 7.29579 168.627 5.58956 167.129 6.4458L135.71 26.9892C135.196 27.3267 135.212 28.0851 135.737 28.4017L152.723 38.5453ZM181.999 40.6661H204.751L184.839 5.58748C184.187 4.52916 183.093 4 181.999 4C180.906 4 179.812 4.52916 179.16 5.58748L159.248 40.6661H181.999ZM230.736 34.6454L214.77 44.2265L230.455 69.7157C230.894 70.4324 231.999 70.1199 231.999 69.2782V35.36C231.999 34.7121 231.292 34.3121 230.736 34.6454ZM211.276 38.5453L228.261 28.3996C228.788 28.083 228.803 27.3247 228.288 26.9872L196.87 6.4458C195.372 5.58956 193.72 7.29579 194.624 8.7666L211.276 38.5453ZM227.738 90.6717L185.333 95.3153V108.996C185.333 110.213 186.593 111.019 187.697 110.509L228.197 92.2466C229.036 91.8362 228.665 90.5675 227.738 90.6717ZM209.759 48.8035L187.128 88.4071L230.515 83.8093C231.73 83.6738 232.392 82.3218 231.751 81.2801L209.759 48.8035ZM181.999 47.3327H161.077L181.999 83.9468L202.922 47.3327H181.999Z" fill="#161717"/>
</g>
<g filter="url(#filter1_d_3_3)">
<path d="M20.3175 179.528C17.9175 179.528 15.9335 179.16 14.3655 178.424C12.8295 177.688 11.6775 176.584 10.9095 175.112C10.1415 173.608 9.7575 171.736 9.7575 169.496V161.672H8.1255C7.1015 161.672 6.3015 161.4 5.7255 160.856C5.1815 160.312 4.9095 159.528 4.9095 158.504C4.9095 157.48 5.1815 156.712 5.7255 156.2C6.3015 155.656 7.1015 155.384 8.1255 155.384H9.7575V152.408C9.7575 151 10.1255 149.928 10.8615 149.192C11.5975 148.456 12.6535 148.088 14.0295 148.088C15.4055 148.088 16.4615 148.456 17.1975 149.192C17.9335 149.928 18.3015 151 18.3015 152.408V155.384H22.2375C23.2935 155.384 24.0935 155.656 24.6375 156.2C25.2135 156.712 25.5015 157.48 25.5015 158.504C25.5015 159.528 25.2135 160.312 24.6375 160.856C24.0935 161.4 23.2935 161.672 22.2375 161.672H18.3015V169.208C18.3015 170.392 18.5735 171.272 19.1175 171.848C19.6935 172.392 20.5895 172.664 21.8055 172.664C22.2535 172.664 22.6855 172.616 23.1015 172.52C23.5175 172.424 23.9015 172.376 24.2535 172.376C24.7655 172.344 25.1815 172.504 25.5015 172.856C25.8215 173.176 25.9815 173.928 25.9815 175.112C25.9815 176.072 25.8375 176.888 25.5495 177.56C25.2615 178.2 24.7495 178.664 24.0135 178.952C23.5655 179.112 22.9575 179.24 22.1895 179.336C21.4215 179.464 20.7975 179.528 20.3175 179.528ZM33.363 179.432C31.955 179.432 30.867 179.048 30.099 178.28C29.331 177.48 28.947 176.376 28.947 174.968V149.624C28.947 148.184 29.331 147.08 30.099 146.312C30.899 145.544 32.003 145.16 33.411 145.16H45.219C49.059 145.16 52.019 146.104 54.099 147.992C56.211 149.848 57.267 152.44 57.267 155.768C57.267 157.912 56.787 159.784 55.827 161.384C54.899 162.952 53.539 164.168 51.747 165.032C49.987 165.864 47.811 166.28 45.219 166.28L45.603 165.416H47.907C49.283 165.416 50.499 165.752 51.555 166.424C52.611 167.064 53.491 168.056 54.195 169.4L56.595 173.72C57.107 174.648 57.347 175.56 57.315 176.456C57.283 177.32 56.931 178.04 56.259 178.616C55.619 179.16 54.675 179.432 53.427 179.432C52.179 179.432 51.155 179.176 50.355 178.664C49.587 178.152 48.899 177.352 48.291 176.264L43.923 168.248C43.539 167.544 43.043 167.064 42.435 166.808C41.859 166.52 41.187 166.376 40.419 166.376H37.779V174.968C37.779 176.376 37.411 177.48 36.675 178.28C35.939 179.048 34.835 179.432 33.363 179.432ZM37.779 160.136H43.635C45.331 160.136 46.627 159.8 47.523 159.128C48.419 158.456 48.867 157.416 48.867 156.008C48.867 154.664 48.419 153.656 47.523 152.984C46.627 152.28 45.331 151.928 43.635 151.928H37.779V160.136ZM67.2536 179.432C65.8456 179.432 64.7576 179.048 63.9896 178.28C63.2216 177.48 62.8376 176.376 62.8376 174.968V149.624C62.8376 148.184 63.2216 147.08 63.9896 146.312C64.7896 145.544 65.8936 145.16 67.3016 145.16H79.1096C82.9496 145.16 85.9096 146.152 87.9896 148.136C90.1016 150.088 91.1576 152.792 91.1576 156.248C91.1576 159.704 90.1016 162.424 87.9896 164.408C85.9096 166.36 82.9496 167.336 79.1096 167.336H71.6696V174.968C71.6696 176.376 71.3016 177.48 70.5656 178.28C69.8296 179.048 68.7256 179.432 67.2536 179.432ZM71.6696 160.568H77.5736C79.2376 160.568 80.5176 160.216 81.4136 159.512C82.3096 158.776 82.7576 157.688 82.7576 156.248C82.7576 154.776 82.3096 153.688 81.4136 152.984C80.5176 152.28 79.2376 151.928 77.5736 151.928H71.6696V160.568ZM112.461 179.528C108.589 179.528 105.293 178.808 102.573 177.368C99.8854 175.928 97.8374 173.912 96.4294 171.32C95.0214 168.728 94.3174 165.704 94.3174 162.248C94.3174 159.56 94.7334 157.144 95.5654 155C96.4294 152.824 97.6614 150.968 99.2614 149.432C100.861 147.864 102.813 146.68 105.117 145.88C107.453 145.048 110.093 144.632 113.037 144.632C114.637 144.632 116.269 144.792 117.933 145.112C119.597 145.4 121.229 145.96 122.829 146.792C123.661 147.176 124.221 147.72 124.509 148.424C124.829 149.096 124.925 149.816 124.797 150.584C124.701 151.32 124.429 152.008 123.981 152.648C123.565 153.256 122.989 153.672 122.253 153.896C121.517 154.088 120.685 153.976 119.757 153.56C118.797 153.112 117.757 152.776 116.637 152.552C115.517 152.296 114.333 152.168 113.085 152.168C110.941 152.168 109.149 152.552 107.709 153.32C106.301 154.088 105.245 155.224 104.541 156.728C103.837 158.232 103.485 160.072 103.485 162.248C103.485 165.512 104.285 167.976 105.885 169.64C107.485 171.304 109.853 172.136 112.989 172.136C113.949 172.136 114.989 172.04 116.109 171.848C117.261 171.656 118.413 171.384 119.565 171.032L117.933 174.344V166.136H114.573C113.485 166.136 112.637 165.864 112.029 165.32C111.453 164.776 111.165 164.008 111.165 163.016C111.165 162.024 111.453 161.272 112.029 160.76C112.637 160.216 113.485 159.944 114.573 159.944H121.677C122.797 159.944 123.645 160.248 124.221 160.856C124.829 161.432 125.133 162.28 125.133 163.4V174.008C125.133 174.968 124.925 175.784 124.509 176.456C124.125 177.128 123.501 177.608 122.637 177.896C121.133 178.408 119.501 178.808 117.741 179.096C115.981 179.384 114.221 179.528 112.461 179.528ZM149.383 179C147.879 179 146.727 178.616 145.927 177.848C145.159 177.048 144.775 175.912 144.775 174.44V149.72C144.775 148.248 145.159 147.128 145.927 146.36C146.727 145.56 147.879 145.16 149.383 145.16H165.655C166.807 145.16 167.671 145.448 168.247 146.024C168.823 146.6 169.111 147.432 169.111 148.52C169.111 149.64 168.823 150.504 168.247 151.112C167.671 151.688 166.807 151.976 165.655 151.976H153.223V158.408H164.599C165.719 158.408 166.567 158.696 167.143 159.272C167.751 159.848 168.055 160.696 168.055 161.816C168.055 162.936 167.751 163.784 167.143 164.36C166.567 164.936 165.719 165.224 164.599 165.224H153.223V172.184H165.655C166.807 172.184 167.671 172.488 168.247 173.096C168.823 173.672 169.111 174.504 169.111 175.592C169.111 176.712 168.823 177.56 168.247 178.136C167.671 178.712 166.807 179 165.655 179H149.383ZM182.66 179.528C179.588 179.528 177.316 178.712 175.844 177.08C174.404 175.416 173.684 172.92 173.684 169.592V149.048C173.684 147.64 174.052 146.568 174.788 145.832C175.524 145.096 176.564 144.728 177.908 144.728C179.284 144.728 180.34 145.096 181.076 145.832C181.844 146.568 182.228 147.64 182.228 149.048V169.304C182.228 170.488 182.452 171.352 182.9 171.896C183.38 172.44 183.988 172.712 184.724 172.712C184.948 172.712 185.172 172.696 185.396 172.664C185.652 172.6 185.924 172.552 186.212 172.52C186.756 172.52 187.156 172.728 187.412 173.144C187.7 173.56 187.844 174.408 187.844 175.688C187.844 176.808 187.62 177.656 187.172 178.232C186.724 178.776 186.036 179.128 185.108 179.288C184.852 179.32 184.484 179.368 184.004 179.432C183.524 179.496 183.076 179.528 182.66 179.528ZM203.001 179.528C200.121 179.528 197.625 179.032 195.513 178.04C193.433 177.016 191.833 175.576 190.713 173.72C189.593 171.864 189.033 169.672 189.033 167.144C189.033 164.712 189.561 162.584 190.617 160.76C191.705 158.904 193.177 157.464 195.033 156.44C196.921 155.384 199.065 154.856 201.465 154.856C203.225 154.856 204.825 155.144 206.265 155.72C207.705 156.264 208.937 157.08 209.961 158.168C210.985 159.224 211.753 160.504 212.265 162.008C212.809 163.512 213.081 165.192 213.081 167.048C213.081 167.688 212.905 168.168 212.553 168.488C212.201 168.776 211.641 168.92 210.873 168.92H196.185V164.888H206.841L206.073 165.512C206.073 164.328 205.913 163.368 205.593 162.632C205.273 161.896 204.793 161.336 204.153 160.952C203.545 160.568 202.777 160.376 201.849 160.376C200.857 160.376 199.993 160.616 199.257 161.096C198.553 161.544 198.009 162.216 197.625 163.112C197.241 164.008 197.049 165.128 197.049 166.472V166.904C197.049 169.176 197.545 170.808 198.537 171.8C199.561 172.76 201.129 173.24 203.241 173.24C203.945 173.24 204.745 173.16 205.641 173C206.569 172.808 207.449 172.552 208.281 172.232C209.113 171.912 209.833 171.864 210.441 172.088C211.049 172.28 211.513 172.632 211.833 173.144C212.185 173.624 212.377 174.184 212.409 174.824C212.441 175.432 212.297 176.04 211.977 176.648C211.657 177.224 211.129 177.672 210.393 177.992C209.273 178.504 208.073 178.888 206.793 179.144C205.545 179.4 204.281 179.528 203.001 179.528ZM221.082 179.432C219.738 179.432 218.698 179.064 217.962 178.328C217.226 177.592 216.858 176.52 216.858 175.112V159.224C216.858 157.848 217.21 156.792 217.914 156.056C218.65 155.32 219.69 154.952 221.034 154.952C222.378 154.952 223.402 155.32 224.106 156.056C224.81 156.792 225.162 157.848 225.162 159.224V161.864L224.634 159.512C225.306 158.104 226.298 156.984 227.61 156.152C228.954 155.288 230.538 154.856 232.362 154.856C234.09 154.856 235.562 155.272 236.778 156.104C238.026 156.936 238.922 158.2 239.466 159.896H238.794C239.53 158.328 240.634 157.096 242.106 156.2C243.578 155.304 245.21 154.856 247.002 154.856C248.858 154.856 250.378 155.224 251.562 155.96C252.746 156.664 253.626 157.784 254.202 159.32C254.81 160.824 255.114 162.728 255.114 165.032V175.112C255.114 176.52 254.73 177.592 253.962 178.328C253.226 179.064 252.17 179.432 250.794 179.432C249.45 179.432 248.41 179.064 247.674 178.328C246.938 177.592 246.57 176.52 246.57 175.112V165.272C246.57 163.896 246.362 162.904 245.946 162.296C245.53 161.688 244.842 161.384 243.882 161.384C242.698 161.384 241.786 161.8 241.146 162.632C240.538 163.464 240.234 164.648 240.234 166.184V175.112C240.234 176.52 239.866 177.592 239.13 178.328C238.394 179.064 237.338 179.432 235.962 179.432C234.586 179.432 233.53 179.064 232.794 178.328C232.058 177.592 231.69 176.52 231.69 175.112V165.272C231.69 163.896 231.482 162.904 231.066 162.296C230.65 161.688 229.962 161.384 229.002 161.384C227.85 161.384 226.954 161.8 226.314 162.632C225.706 163.464 225.402 164.648 225.402 166.184V175.112C225.402 177.992 223.962 179.432 221.082 179.432ZM272.938 179.528C270.058 179.528 267.562 179.032 265.45 178.04C263.37 177.016 261.77 175.576 260.65 173.72C259.53 171.864 258.97 169.672 258.97 167.144C258.97 164.712 259.498 162.584 260.554 160.76C261.642 158.904 263.114 157.464 264.97 156.44C266.858 155.384 269.002 154.856 271.402 154.856C273.162 154.856 274.762 155.144 276.202 155.72C277.642 156.264 278.874 157.08 279.898 158.168C280.922 159.224 281.69 160.504 282.202 162.008C282.746 163.512 283.018 165.192 283.018 167.048C283.018 167.688 282.842 168.168 282.49 168.488C282.138 168.776 281.578 168.92 280.81 168.92H266.122V164.888H276.778L276.01 165.512C276.01 164.328 275.85 163.368 275.53 162.632C275.21 161.896 274.73 161.336 274.09 160.952C273.482 160.568 272.714 160.376 271.786 160.376C270.794 160.376 269.93 160.616 269.194 161.096C268.49 161.544 267.946 162.216 267.562 163.112C267.178 164.008 266.986 165.128 266.986 166.472V166.904C266.986 169.176 267.482 170.808 268.474 171.8C269.498 172.76 271.066 173.24 273.178 173.24C273.882 173.24 274.682 173.16 275.578 173C276.506 172.808 277.386 172.552 278.218 172.232C279.05 171.912 279.77 171.864 280.378 172.088C280.986 172.28 281.45 172.632 281.77 173.144C282.122 173.624 282.314 174.184 282.346 174.824C282.378 175.432 282.234 176.04 281.914 176.648C281.594 177.224 281.066 177.672 280.33 177.992C279.21 178.504 278.01 178.888 276.73 179.144C275.482 179.4 274.218 179.528 272.938 179.528ZM290.923 179.432C289.579 179.432 288.539 179.064 287.803 178.328C287.067 177.592 286.699 176.52 286.699 175.112V159.224C286.699 157.848 287.051 156.792 287.755 156.056C288.491 155.32 289.531 154.952 290.875 154.952C292.219 154.952 293.243 155.32 293.947 156.056C294.651 156.792 295.003 157.848 295.003 159.224V161.48L294.475 159.512C295.243 158.008 296.331 156.856 297.739 156.056C299.179 155.256 300.811 154.856 302.635 154.856C304.523 154.856 306.075 155.224 307.291 155.96C308.507 156.664 309.419 157.784 310.027 159.32C310.635 160.824 310.939 162.728 310.939 165.032V175.112C310.939 176.52 310.571 177.592 309.835 178.328C309.099 179.064 308.043 179.432 306.667 179.432C305.291 179.432 304.235 179.064 303.499 178.328C302.763 177.592 302.395 176.52 302.395 175.112V165.368C302.395 163.928 302.139 162.904 301.627 162.296C301.147 161.688 300.427 161.384 299.467 161.384C298.187 161.384 297.163 161.8 296.395 162.632C295.627 163.432 295.243 164.52 295.243 165.896V175.112C295.243 177.992 293.803 179.432 290.923 179.432ZM328.193 179.528C325.793 179.528 323.809 179.16 322.241 178.424C320.705 177.688 319.553 176.584 318.785 175.112C318.017 173.608 317.633 171.736 317.633 169.496V161.672H316.001C314.977 161.672 314.177 161.4 313.601 160.856C313.056 160.312 312.784 159.528 312.784 158.504C312.784 157.48 313.056 156.712 313.601 156.2C314.177 155.656 314.977 155.384 316.001 155.384H317.633V152.408C317.633 151 318.001 149.928 318.737 149.192C319.473 148.456 320.529 148.088 321.905 148.088C323.281 148.088 324.337 148.456 325.073 149.192C325.809 149.928 326.177 151 326.177 152.408V155.384H330.113C331.169 155.384 331.969 155.656 332.513 156.2C333.089 156.712 333.377 157.48 333.377 158.504C333.377 159.528 333.089 160.312 332.513 160.856C331.969 161.4 331.169 161.672 330.113 161.672H326.177V169.208C326.177 170.392 326.449 171.272 326.993 171.848C327.569 172.392 328.465 172.664 329.681 172.664C330.129 172.664 330.561 172.616 330.977 172.52C331.393 172.424 331.777 172.376 332.129 172.376C332.641 172.344 333.057 172.504 333.377 172.856C333.697 173.176 333.857 173.928 333.857 175.112C333.857 176.072 333.713 176.888 333.425 177.56C333.137 178.2 332.625 178.664 331.889 178.952C331.441 179.112 330.833 179.24 330.065 179.336C329.297 179.464 328.673 179.528 328.193 179.528ZM345.654 179.528C344.246 179.528 342.806 179.416 341.334 179.192C339.894 179 338.582 178.632 337.398 178.088C336.598 177.768 336.022 177.336 335.67 176.792C335.35 176.248 335.19 175.672 335.19 175.064C335.222 174.456 335.398 173.912 335.718 173.432C336.07 172.92 336.518 172.568 337.062 172.376C337.638 172.152 338.278 172.168 338.982 172.424C340.326 172.904 341.526 173.256 342.582 173.48C343.67 173.672 344.71 173.768 345.702 173.768C346.886 173.768 347.734 173.608 348.246 173.288C348.758 172.936 349.014 172.488 349.014 171.944C349.014 171.464 348.838 171.096 348.486 170.84C348.166 170.584 347.702 170.408 347.094 170.312L341.766 169.448C339.782 169.096 338.246 168.376 337.158 167.288C336.07 166.168 335.526 164.712 335.526 162.92C335.526 161.256 335.99 159.832 336.918 158.648C337.878 157.432 339.174 156.504 340.806 155.864C342.47 155.192 344.374 154.856 346.518 154.856C347.958 154.856 349.27 154.968 350.454 155.192C351.638 155.384 352.79 155.752 353.91 156.296C354.614 156.584 355.11 157 355.398 157.544C355.686 158.088 355.798 158.664 355.734 159.272C355.67 159.848 355.462 160.392 355.11 160.904C354.79 161.384 354.342 161.72 353.766 161.912C353.19 162.072 352.518 162.024 351.75 161.768C350.694 161.352 349.75 161.048 348.918 160.856C348.118 160.664 347.366 160.568 346.662 160.568C345.35 160.568 344.422 160.744 343.878 161.096C343.334 161.448 343.062 161.896 343.062 162.44C343.062 162.856 343.206 163.208 343.494 163.496C343.782 163.752 344.23 163.928 344.838 164.024L350.166 164.936C352.214 165.256 353.782 165.96 354.87 167.048C355.99 168.104 356.55 169.544 356.55 171.368C356.55 173.96 355.558 175.976 353.574 177.416C351.59 178.824 348.95 179.528 345.654 179.528Z" fill="#161717"/>
</g>
<defs>
<filter id="filter0_d_3_3" x="128" y="0" width="108" height="114.667" filterUnits="userSpaceOnUse" color-interpolation-filters="sRGB">
<feFlood flood-opacity="0" result="BackgroundImageFix"/>
<feColorMatrix in="SourceAlpha" type="matrix" values="0 0 0 0 0 0 0 0 0 0 0 0 0 0 0 0 0 0 127 0" result="hardAlpha"/>
<feOffset/>
<feGaussianBlur stdDeviation="2"/>
<feComposite in2="hardAlpha" operator="out"/>
<feColorMatrix type="matrix" values="0 0 0 0 0.0862745 0 0 0 0 0.0901961 0 0 0 0 0.0901961 0 0 0 0.3 0"/>
<feBlend mode="normal" in2="BackgroundImageFix" result="effect1_dropShadow_3_3"/>
<feBlend mode="normal" in="SourceGraphic" in2="effect1_dropShadow_3_3" result="shape"/>
</filter>
<filter id="filter1_d_3_3" x="0.9095" y="140.632" width="359.641" height="42.896" filterUnits="userSpaceOnUse" color-interpolation-filters="sRGB">
<feFlood flood-opacity="0" result="BackgroundImageFix"/>
<feColorMatrix in="SourceAlpha" type="matrix" values="0 0 0 0 0 0 0 0 0 0 0 0 0 0 0 0 0 0 127 0" result="hardAlpha"/>
<feOffset/>
<feGaussianBlur stdDeviation="2"/>
<feComposite in2="hardAlpha" operator="out"/>
<feColorMatrix type="matrix" values="0 0 0 0 0.0862745 0 0 0 0 0.0901961 0 0 0 0 0.0901961 0 0 0 0.3 0"/>
<feBlend mode="normal" in2="BackgroundImageFix" result="effect1_dropShadow_3_3"/>
<feBlend mode="normal" in="SourceGraphic" in2="effect1_dropShadow_3_3" result="shape"/>
</filter>
</defs>
</svg>
